<svg xmlns="http://www.w3.org/2000/svg" width="150" height="135" viewBox="0 0 150 135">
  <g fill="none" fill-rule="evenodd">
    <path fill="#F3F3F3" d="M6.86666333,101.397929 C-2.39604541,83.4290707 -6.40735085,59.8383888 22.1697714,54.8945532 C50.7468937,49.9507175 57.4870257,89.3174265 96.1654645,60.9579682 C134.843903,32.5985099 151.070958,29.6331962 149.894431,57.9110388 C148.717904,86.1888813 133.338632,116.372403 96.2955355,130.333157 C59.2524394,144.293911 16.1293721,119.366788 6.86666333,101.397929 Z"/>
    <g transform="translate(21.97)">
      <g transform="rotate(7 23.24 433.157)">
        <path fill="#B50000" d="M19.4190013,1.61556318 C20.0227904,6.37633267 24.0877514,10.0574213 29.0124768,10.0574213 C33.940507,10.0574213 38.0076185,6.37139061 38.6071632,1.60597757 C38.6071632,1.60597757 38.6071632,1.60597757 38.6071632,1.60597757 C38.7226163,0.688312094 39.5029605,-7.31300113e-06 40.4278601,0 L53.2512876,0 C55.4604266,3.07431771e-15 57.2512876,1.790861 57.2512876,4 L57.2512876,78.0090828 C57.2512876,80.2182218 55.4604266,82.0090828 53.2512876,82.0090828 L40.304811,82.0090828 C39.4267319,82.0090847 38.6715274,81.3874448 38.5027547,80.5257379 C38.5027547,80.5257379 38.5027547,80.5257379 38.5027547,80.5257379 C37.6318836,76.0793102 33.7139742,72.7243712 29.0124768,72.7243712 C24.3033451,72.7243712 20.3803482,76.0902147 19.5179807,80.5474071 C19.5179807,80.5474071 19.5179807,80.5474071 19.5179807,80.5474071 C19.3537854,81.396059 18.6108136,82.0090606 17.7464236,82.0090828 L4,82.0090828 C1.790861,82.0090828 1.15871992e-15,80.2182218 0,78.0090828 L0,4 C-2.705415e-16,1.790861 1.790861,4.05812251e-16 4,0 L17.5856309,0 C18.5163833,2.58498521e-05 19.3018958,0.692207252 19.4190013,1.61556318 C19.4190013,1.61556318 19.4190013,1.61556318 19.4190013,1.61556318 Z"/>
        <path fill="#DD3E1E" fill-rule="nonzero" d="M6.76957793 20.6021554L11.4115742 20.6021554C11.7320372 20.6021554 11.9918238 20.3199819 11.9918238 19.9719033 11.9918238 19.6238247 11.7320372 19.3416512 11.4115742 19.3416512L6.76957793 19.3416512C6.44911496 19.3416512 6.18932839 19.6238247 6.18932839 19.9719033 6.18932839 20.3199819 6.44911496 20.6021554 6.76957793 20.6021554zM14.5062384 20.6021554L19.1482347 20.6021554C19.4686977 20.6021554 19.7284842 20.3199819 19.7284842 19.9719033 19.7284842 19.6238247 19.4686977 19.3416512 19.1482347 19.3416512L14.5062384 19.3416512C14.1857754 19.3416512 13.9259889 19.6238247 13.9259889 19.9719033 13.9259889 20.3199819 14.1857754 20.6021554 14.5062384 20.6021554zM22.2428989 20.6021554L26.8848952 20.6021554C27.2053582 20.6021554 27.4651447 20.3199819 27.4651447 19.9719033 27.4651447 19.6238247 27.2053582 19.3416512 26.8848952 19.3416512L22.2428989 19.3416512C21.9224359 19.3416512 21.6626494 19.6238247 21.6626494 19.9719033 21.6626494 20.3199819 21.9224359 20.6021554 22.2428989 20.6021554zM29.9795594 20.6021554L34.6215557 20.6021554C34.9420187 20.6021554 35.2018052 20.3199819 35.2018052 19.9719033 35.2018052 19.6238247 34.9420187 19.3416512 34.6215557 19.3416512L29.9795594 19.3416512C29.6590964 19.3416512 29.3993099 19.6238247 29.3993099 19.9719033 29.3993099 20.3199819 29.6590964 20.6021554 29.9795594 20.6021554zM37.7162199 20.6021554L42.3582162 20.6021554C42.6786791 20.6021554 42.9384657 20.3199819 42.9384657 19.9719033 42.9384657 19.6238247 42.6786791 19.3416512 42.3582162 19.3416512L37.7162199 19.3416512C37.3957569 19.3416512 37.1359703 19.6238247 37.1359703 19.9719033 37.1359703 20.3199819 37.3957569 20.6021554 37.7162199 20.6021554zM45.4528804 20.6021554L50.0948767 20.6021554C50.4153396 20.6021554 50.6751262 20.3199819 50.6751262 19.9719033 50.6751262 19.6238247 50.4153396 19.3416512 50.0948767 19.3416512L45.4528804 19.3416512C45.1324174 19.3416512 44.8726308 19.6238247 44.8726308 19.9719033 44.8726308 20.3199819 45.1324174 20.6021554 45.4528804 20.6021554zM37.5736049 45.8930846L20.4477933 57.1342864C19.967644 57.4494513 19.3416512 57.0908699 19.3416512 56.5006656L19.3416512 34.0182621C19.3416512 33.4280578 19.967644 33.0694764 20.4477933 33.3846413L37.5736049 44.6258431C38.0216469 44.9199331 38.0216469 45.5989946 37.5736049 45.8930846z"/>
      </g>
      <g transform="rotate(-6 136.99 6.008)">
        <path fill="#E60202" stroke="#FFF" stroke-width="1.5" d="M19.783814,0.75 C20.1185055,0.750009295 20.4270835,0.874465744 20.6625158,1.08192825 C20.8979428,1.28938622 21.0602271,1.57984726 21.1023365,1.91187215 C21.4676042,4.79194297 22.885716,7.3437675 24.9594397,9.16855774 C27.0079752,10.9711835 29.6957991,12.0645989 32.6390364,12.0645989 C35.5294901,12.0645989 38.1735997,11.0100344 40.2078009,9.26485748 C42.2713939,7.49446494 43.7067864,5.01303002 44.1354109,2.20075431 C44.1960439,1.73105129 44.3613176,1.36110984 44.6150541,1.10732714 C44.8470984,0.875240492 45.1511626,0.749997389 45.4813426,0.75 L45.4813426,0.75 L60.4076986,0.75 C61.3051613,0.75 62.1176613,1.11376864 62.7057956,1.70190296 C63.2939299,2.29003728 63.6576986,3.10253728 63.6576986,4 L63.6576986,4 L63.6576986,88.2602181 C63.6576986,89.1576808 63.2939299,89.9701808 62.7057956,90.5583152 C62.1176613,91.1464495 61.3051613,91.5102181 60.4076986,91.5102181 L60.4076986,91.5102181 L45.3429108,91.5102181 C45.0468221,91.5102188 44.770217,91.4116001 44.5477458,91.2427865 C44.3300625,91.0776061 44.1640403,90.8453278 44.0824607,90.5719485 C43.5313729,87.8165614 42.0730356,85.4346146 40.0464087,83.7444327 C38.0300987,82.062855 35.4511425,81.0649176 32.6390364,81.0649176 C29.8868629,81.0649176 27.3580493,82.0210367 25.3663776,83.6189696 C23.3355454,85.2483212 21.8637445,87.5454197 21.2827885,90.1768496 C21.1959456,90.6176575 21.0240935,90.9585637 20.7771864,91.1899675 C20.5534333,91.3996713 20.2699572,91.5102103 19.9647265,91.5102181 L19.9647265,91.5102181 L4,91.5102181 C3.10253728,91.5102181 2.29003728,91.1464495 1.70190296,90.5583152 C1.11376864,89.9701808 0.75,89.1576808 0.75,88.2602181 L0.75,88.2602181 L0.75,4 C0.75,3.10253728 1.11376864,2.29003728 1.70190296,1.70190296 C2.29003728,1.11376864 3.10253728,0.75 4,0.75 L4,0.75 Z"/>
        <path fill="#FD775E" fill-rule="nonzero" d="M7.61577517 23.0649191L12.838021 23.0649191C13.1985418 23.0649191 13.4908017 22.7726592 13.4908017 22.4121384 13.4908017 22.0516175 13.1985418 21.7593576 12.838021 21.7593576L7.61577517 21.7593576C7.25525433 21.7593576 6.96299444 22.0516175 6.96299444 22.4121384 6.96299444 22.7726592 7.25525433 23.0649191 7.61577517 23.0649191zM16.3195182 23.0649191L21.541764 23.0649191C21.9022849 23.0649191 22.1945448 22.7726592 22.1945448 22.4121384 22.1945448 22.0516175 21.9022849 21.7593576 21.541764 21.7593576L16.3195182 21.7593576C15.9589974 21.7593576 15.6667375 22.0516175 15.6667375 22.4121384 15.6667375 22.7726592 15.9589974 23.0649191 16.3195182 23.0649191zM25.0232613 23.0649191L30.2455071 23.0649191C30.6060279 23.0649191 30.8982878 22.7726592 30.8982878 22.4121384 30.8982878 22.0516175 30.6060279 21.7593576 30.2455071 21.7593576L25.0232613 21.7593576C24.6627404 21.7593576 24.3704805 22.0516175 24.3704805 22.4121384 24.3704805 22.7726592 24.6627404 23.0649191 25.0232613 23.0649191zM33.7270043 23.0649191L38.9492501 23.0649191C39.309771 23.0649191 39.6020309 22.7726592 39.6020309 22.4121384 39.6020309 22.0516175 39.309771 21.7593576 38.9492501 21.7593576L33.7270043 21.7593576C33.3664835 21.7593576 33.0742236 22.0516175 33.0742236 22.4121384 33.0742236 22.7726592 33.3664835 23.0649191 33.7270043 23.0649191zM42.4307474 23.0649191L47.6529932 23.0649191C48.013514 23.0649191 48.3057739 22.7726592 48.3057739 22.4121384 48.3057739 22.0516175 48.013514 21.7593576 47.6529932 21.7593576L42.4307474 21.7593576C42.0702265 21.7593576 41.7779666 22.0516175 41.7779666 22.4121384 41.7779666 22.7726592 42.0702265 23.0649191 42.4307474 23.0649191zM51.1344904 23.0649191L56.3567362 23.0649191C56.7172571 23.0649191 57.009517 22.7726592 57.009517 22.4121384 57.009517 22.0516175 56.7172571 21.7593576 56.3567362 21.7593576L51.1344904 21.7593576C50.7739696 21.7593576 50.4817097 22.0516175 50.4817097 22.4121384 50.4817097 22.7726592 50.7739696 23.0649191 51.1344904 23.0649191zM42.2703055 51.6297202L23.0037675 64.2760722C22.4635995 64.6306327 21.7593576 64.2272286 21.7593576 63.5632488L21.7593576 38.2705449C21.7593576 37.6065651 22.4635995 37.203161 23.0037675 37.5577215L42.2703055 50.2040735C42.7743528 50.5349248 42.7743528 51.2988689 42.2703055 51.6297202z"/>
      </g>
    </g>
  </g>
</svg>
