<?xml version="1.0" encoding="UTF-8"?><svg xmlns="http://www.w3.org/2000/svg" xmlns:xlink="http://www.w3.org/1999/xlink" version="1.1" x="0px" y="0px" viewBox="0 0 32 32" xml:space="preserve"><g id="GLYPH"><path d="M16 32c8.837 0 16-7.163 16-16S24.837 0 16 0 0 7.163 0 16s7.163 16 16 16zm0-29.809c7.626 0 13.809 6.182 13.809 13.809S23.626 29.809 16 29.809 2.191 23.626 2.191 16 8.374 2.191 16 2.191z"/><path d="M16 27.597c6.405 0 11.597-5.192 11.597-11.597S22.405 4.403 16 4.403 4.403 9.595 4.403 16 9.595 27.597 16 27.597zm-3.698-6.123H9.398v-8.737h2.904v8.737zm1.607-8.737h2.904v1.238c.385-.595 1.076-1.443 2.617-1.443 1.91 0 3.343 1.249 3.343 3.933v5.01H19.87V16.8c0-1.174-.42-1.975-1.471-1.975-.802 0-1.28.54-1.489 1.062-.077.186-.096.447-.096.708v4.88H13.91c-.001-.001.038-7.918-.001-8.738zm-3.04-4.212c.993 0 1.605.652 1.624 1.509 0 .839-.631 1.51-1.643 1.51h-.018c-.975 0-1.605-.672-1.605-1.51-.001-.857.649-1.509 1.642-1.509z"/></g><metadata><rdf:RDF xmlns:rdf="http://www.w3.org/1999/02/22-rdf-syntax-ns#" xmlns:rdfs="http://www.w3.org/2000/01/rdf-schema#" xmlns:dc="http://purl.org/dc/elements/1.1/"><rdf:Description about="https://iconscout.com/legal#licenses" dc:title="linkedin,social,media,logo,share" dc:description="linkedin,social,media,logo,share" dc:publisher="Iconscout" dc:date="2017-09-15" dc:format="image/svg+xml" dc:language="en"><dc:creator><rdf:Bag><rdf:li>Epicflaticon by Alfredo</rdf:li></rdf:Bag></dc:creator></rdf:Description></rdf:RDF></metadata></svg>