<svg xmlns="http://www.w3.org/2000/svg" xmlns:xlink="http://www.w3.org/1999/xlink" width="24" height="24" viewBox="0 0 24 24">
  <defs>
    <path id="accessories-a" d="M15.5261236,6.99557546 L19.9470816,6.9970672 C20.3025327,6.9970672 20.6091668,7.24657872 20.6814223,7.59460843 L23.8763731,22.9835727 C23.9730367,23.4491677 23.6175558,23.8860315 23.1420324,23.8860315 L0.777376832,23.8860315 C0.301853381,23.8860315 -0.0536275349,23.4491677 0.0430360909,22.9835727 L3.23798688,7.59460843 C3.31024241,7.24657872 3.61687644,6.9970672 3.97232762,6.9970672 L8.37958801,6.98948103 C8.38072939,5.46668839 8.38999671,4.27594414 8.40738772,3.41824817 C8.40738772,1.38441356 10.0026282,0.0460337353 11.9647389,0.0227062647 C13.9454295,-0.000842100797 15.5399224,1.32427257 15.5399224,3.42563154 C15.5313332,4.29635982 15.5267336,5.48642348 15.5261236,6.99557546 Z M19.3367982,8.4970672 L15.5267099,8.49416883 C15.5282836,9.93225128 15.5326878,11.5966572 15.5399224,13.4872388 C15.5415014,13.9014494 15.2070019,14.2385179 14.7927914,14.2401084 C14.3785809,14.241687 14.0415124,13.9071876 14.0399278,13.4929771 C14.0326876,11.6003708 14.0282793,9.93401756 14.0267024,8.49421151 L9.88087437,8.49610158 C9.88409497,9.92989226 9.89292291,11.5927567 9.90736586,13.4843817 C9.91052838,13.8985832 9.57731546,14.2369236 9.16311397,14.2401084 C8.74891248,14.2432486 8.4105721,13.9100357 8.40740958,13.4958342 C8.39293467,11.6000245 8.38408423,9.93318484 8.38085696,8.49589088 L4.58261097,8.4970672 L1.69907985,22.3860315 L22.2203293,22.3860315 L19.3367982,8.4970672 Z M14.0399223,3.41824817 C14.0399223,2.2229147 13.1801115,1.50836275 11.9825711,1.52260027 C10.7865017,1.5368203 9.90738772,2.27438208 9.90723486,3.43338996 C9.88996622,4.28856256 9.88075303,5.47424218 9.8796086,6.98988761 L14.0261123,6.99588897 C14.0267164,5.48302341 14.03132,4.29031181 14.0399223,3.41824817 Z"/>
  </defs>
  <g fill="none" fill-rule="evenodd">
    <mask id="accessories-b" fill="#fff">
      <use xlink:href="#accessories-a"/>
    </mask>
    <use fill="#CCC" fill-rule="nonzero" xlink:href="#accessories-a"/>
    <g mask="url(#accessories-b)">
      <rect width="23.985" height="24.168" fill="#FFFFFF" transform="translate(.015 -.168)"/>
    </g>
  </g>
</svg>
