<svg xmlns="http://www.w3.org/2000/svg" xmlns:xlink="http://www.w3.org/1999/xlink" width="24" height="24" viewBox="0 0 24 24">
  <defs>
    <path id="clothing-a" d="M7.75997609,1 C8.24594006,2.88827552 9.96002977,4.28353589 12,4.28353589 C14.0399702,4.28353589 15.7540599,2.88827552 16.2400239,1 L18.2571071,1 C18.4588959,1 18.655964,1.06104744 18.8224154,1.17512032 L23.3844211,4.30156397 C23.7495717,4.55180976 23.9067435,5.01234964 23.7707657,5.43361909 L22.1910896,10.3275761 C22.0214413,10.8531595 21.4578446,11.1417019 20.9322612,10.9720536 C20.8651715,10.9503983 20.8005599,10.9217093 20.739504,10.886465 L18.5667743,9.63226414 L18.5049702,22.0050802 C18.5022212,22.5554084 18.0553177,23.0000851 17.5049827,23.0000851 L6.37123661,23.0000851 C5.85840077,23.0000851 5.43572945,22.6140449 5.37796434,22.1167062 L5.37124909,21.99509 L5.43300328,9.63226414 L3.26051014,10.8864144 C2.78220424,11.1625338 2.17062172,10.9986292 1.89450234,10.5203233 C1.85925127,10.4592599 1.8305572,10.3946395 1.80889887,10.3275404 L0.229234283,5.43361909 C0.0932565282,5.01234964 0.250428279,4.55180976 0.615578856,4.30156397 L5.17758457,1.17512032 C5.34403603,1.06104744 5.54110413,1 5.74289291,1 L7.75997609,1 Z M18.102,2.5 L17.275,2.5 L17.1732454,2.69931585 C16.2065716,4.48823026 14.3512874,5.69181808 12.244206,5.77851881 L12,5.78353589 C9.79274132,5.78353589 7.83060821,4.55703466 6.82675461,2.69931585 L6.724,2.5 L5.897,2.5 L1.771,5.327 L3.046,9.278 L6.94603664,7.02680817 L6.873,21.5 L17.006,21.5 L17.0796949,7.0418796 L20.953,9.278 L22.228,5.327 L18.102,2.5 Z"/>
  </defs>
  <g fill="none" fill-rule="evenodd">
    <mask id="clothing-b" fill="#fff">
      <use xlink:href="#clothing-a"/>
    </mask>
    <use fill="#CCC" fill-rule="nonzero" xlink:href="#clothing-a"/>
    <g mask="url(#clothing-b)">
      <rect width="24" height="23.795" fill="#FFFFFF" transform="translate(.05 .102)"/>
    </g>
  </g>
</svg>
