<svg xmlns="http://www.w3.org/2000/svg" xmlns:xlink="http://www.w3.org/1999/xlink" width="24" height="24" viewBox="0 0 24 24">
  <defs>
    <path id="electronics-a" d="M3.99535972,4.82091772 C2.69396887,4.82091772 1.63898314,5.87590345 1.63898314,7.1772943 L1.63898314,16.6028006 C1.63898314,17.9041915 2.69396887,18.9591772 3.99535972,18.9591772 L13.420866,18.9591772 C14.7222569,18.9591772 15.7772426,17.9041915 15.7772426,16.6028006 L15.7772426,7.1772943 C15.7772426,5.87590345 14.7222569,4.82091772 13.420866,4.82091772 L3.99535972,4.82091772 Z M3.99535972,3.25 L13.420866,3.25 C15.5898508,3.25 17.3481603,5.00830955 17.3481603,7.1772943 L17.3481603,16.6028006 C17.3481603,18.7717854 15.5898508,20.5300949 13.420866,20.5300949 L3.99535972,20.5300949 C1.82637497,20.5300949 0.0680654218,18.7717854 0.0680654218,16.6028006 L0.0680654218,7.1772943 C0.0680654218,5.00830955 1.82637497,3.25 3.99535972,3.25 Z M16.1394811,15.3581485 C15.9137919,15.213796 15.7772426,14.9643666 15.7772426,14.6964612 L15.7772426,9.59097864 C15.7772426,9.32307325 15.9137919,9.07364391 16.1394811,8.92929131 L22.7913207,4.67472249 C23.3141387,4.34032403 24,4.71579646 24,5.33640981 L24,18.9510301 C24,19.5716434 23.3141387,19.9471158 22.7913207,19.6127174 L16.1394811,15.3581485 Z M17.3481603,14.2664645 L22.4290823,17.516262 L22.4290823,6.77117787 L17.3481603,10.0209754 L17.3481603,14.2664645 Z"/>
  </defs>
  <g fill="none" fill-rule="evenodd">
    <mask id="electronics-b" fill="#fff">
      <use xlink:href="#electronics-a"/>
    </mask>
    <use fill="#FFFFFF" fill-rule="nonzero" xlink:href="#electronics-a"/>
    <g mask="url(#electronics-b)">
      <rect width="23.986" height="24.011" fill="#FFFFFF" transform="translate(.014 -.011)"/>
    </g>
  </g>
</svg>
