<svg xmlns="http://www.w3.org/2000/svg" xmlns:xlink="http://www.w3.org/1999/xlink" width="24" height="24" viewBox="0 0 24 24">
  <defs>
    <path id="fitness-a" d="M14.4828837,0.366003526 L17.397,3.28012425 L17.7253918,2.9523715 C18.1252308,2.55253246 18.773498,2.55253246 19.173337,2.9523715 L21.1730437,4.95207814 C21.5728827,5.35191718 21.5728827,6.00018434 21.1730437,6.40002338 L20.845,6.72812425 L23.6339965,9.51711634 C24.0338355,9.91695538 24.0338355,10.5652225 23.6339965,10.9650616 L20.3123656,14.2866925 C19.9125266,14.6865315 19.2642594,14.6865315 18.8644203,14.2866925 L15.926,11.3481242 L11.282,15.9921242 L14.2205682,18.9305446 C14.6204073,19.3303836 14.6204073,19.9786508 14.2205682,20.3784898 L10.8989373,23.7001207 C10.4990983,24.0999598 9.85083113,24.0999598 9.45099209,23.7001207 L6.631,20.8801242 L6.09880034,21.4127024 C5.6989613,21.8125415 5.05069414,21.8125415 4.6508551,21.4127024 L2.65114846,19.4129958 C2.25130942,19.0131567 2.25130942,18.3648896 2.65114846,17.9650505 L3.183,17.4321242 L0.299879278,14.5490079 C-0.0999597594,14.1491689 -0.0999597594,13.5009017 0.299879278,13.1010627 L3.62151016,9.77943178 C4.0213492,9.37959274 4.66961637,9.37959274 5.0694554,9.77943178 L8.102,12.8121242 L12.746,8.16812425 L9.71330753,5.13557965 C9.3134685,4.73574061 9.3134685,4.08747345 9.71330753,3.68763441 L13.0349384,0.366003526 C13.4347775,-0.0338355117 14.0830446,-0.0338355117 14.4828837,0.366003526 Z M4.34548278,11.227377 L1.74782452,13.8250353 L10.1749647,22.2521755 L12.772623,19.6545172 L4.34548278,11.227377 Z M13.7338919,9.35294155 L9.2230947,13.8637388 L10.2308943,14.8715383 L14.7416915,10.3607411 L13.7338919,9.35294155 Z M13.758911,1.81394877 L11.1612528,4.41160703 L19.588393,12.8387472 L22.1860512,10.241089 L13.758911,1.81394877 Z"/>
  </defs>
  <g fill="none" fill-rule="evenodd">
    <mask id="fitness-b" fill="#fff">
      <use xlink:href="#fitness-a"/>
    </mask>
    <use fill="#CCC" fill-rule="nonzero" xlink:href="#fitness-a"/>
    <g mask="url(#fitness-b)">
      <rect width="23.991" height="23.934" fill="#FFFFFF" transform="translate(.01 .02)"/>
    </g>
  </g>
</svg>
