<svg xmlns="http://www.w3.org/2000/svg" xmlns:xlink="http://www.w3.org/1999/xlink" width="24" height="24" viewBox="0 0 24 24">
  <defs>
    <path id="home-a" d="M0.309020418,9.28433666 L0.232553691,9.35403566 C-0.211332201,9.81464331 0.105355865,10.6195208 0.778476175,10.6193723 L2.536,10.618 L2.53656479,22.9770185 C2.53657282,23.3912518 2.87239665,23.7270039 3.28663,23.7270039 L8.42163,23.7265574 L8.52339321,23.7197028 C8.8894411,23.670015 9.17156085,23.3562348 9.17156479,22.9765652 L9.171,14.883 L14.828,14.883 L14.8275648,22.9764913 C14.8275283,23.3907052 15.1632857,23.7265214 15.5774996,23.7265574 L20.71337,23.7270039 L20.8151479,23.7201653 C21.1812509,23.6705283 21.4634388,23.3567185 21.4634352,22.9769968 L21.463,10.618 L23.2215239,10.6193723 C23.9300715,10.6195286 24.2436804,9.72768936 23.6909796,9.28433666 L12.4692902,0.28278319 C12.1950888,0.0628306714 11.8049112,0.0628306714 11.5307098,0.28278319 L0.309020418,9.28433666 Z M12,1.829 L21.087,9.118 L20.7134761,9.11881882 L20.6116881,9.12564509 C20.2455464,9.17524188 19.9633071,9.48906837 19.9633107,9.86882593 L19.963,22.227 L16.327,22.226 L16.3283436,14.1339265 C16.3283801,13.7196871 15.992583,13.3838604 15.5783436,13.3838604 L8.42165636,13.3838604 L8.31988652,13.3907069 C7.95381344,13.4403687 7.67166029,13.7541597 7.67165636,14.1338526 L7.671,22.226 L4.036,22.227 L4.03631066,9.86880426 L4.02946023,9.76701986 C3.97977744,9.40089696 3.66589495,9.11873501 3.28614515,9.11881882 L2.912,9.118 L12,1.829 Z"/>
  </defs>
  <g fill="none" fill-rule="evenodd">
    <mask id="home-b" fill="#fff">
      <use xlink:href="#home-a"/>
    </mask>
    <use fill="#CCC" fill-rule="nonzero" xlink:href="#home-a"/>
    <g fill="#FFFFFF" mask="url(#home-b)">
      <rect width="24" height="24"/>
    </g>
  </g>
</svg>
