<svg xmlns="http://www.w3.org/2000/svg" xmlns:xlink="http://www.w3.org/1999/xlink" width="24" height="24" viewBox="0 0 24 24">
  <defs>
    <path id="pets-a" d="M16.2711871,1.43147596 C17.867679,1.85925468 18.7585527,3.61010588 18.7017707,5.64228938 C19.8411247,4.93113686 21.1569182,4.77905833 22.2381948,5.40333362 C23.9929449,6.41643909 24.2858025,8.98675119 23.0484577,11.1298953 C22.2071886,12.587016 20.8412337,13.5302815 19.5014433,13.6664485 C20.5807257,15.1694544 21.2154264,17.0128146 21.2154264,19.0044172 C21.2154264,20.8667432 20.5534542,21.9295151 19.2131652,22.1390381 C18.3589776,22.2725704 17.957385,22.1879228 15.5190869,21.5241124 C13.9870907,21.1070367 13.028822,20.9248625 12.0424103,20.9248625 C11.0559985,20.9248625 10.0977298,21.1070367 8.56573363,21.5241124 C6.1274356,22.1879228 5.72584298,22.2725704 4.87165539,22.1390381 C3.53136639,21.9295151 2.86939414,20.8667432 2.86939414,19.0044172 C2.86939414,17.0163521 3.50184214,15.1760032 4.5765178,13.6735907 C3.20964297,13.5722079 1.80115051,12.6195976 0.941070459,11.1298953 C-0.296274357,8.98675119 -0.00341673479,6.41643909 1.75133341,5.40333362 C2.81559189,4.7888837 4.10704342,4.92654209 5.23467013,5.60815193 C5.18707133,3.59103562 6.07691302,1.85692018 7.66469246,1.43147596 C9.3135261,0.989672318 11.0161752,2.14636917 11.9679302,4.04103371 C12.9197044,2.14636917 14.6223534,0.989672318 16.2711871,1.43147596 Z M12.0424103,11.3314011 C7.80472048,11.3314011 4.36939414,14.7667274 4.36939414,19.0044172 C4.36939414,20.2024327 4.60392739,20.5789672 5.1033317,20.6570374 C5.63921004,20.7408095 6.0530435,20.6535817 8.17170952,20.076789 C9.82405165,19.62695 10.8870675,19.4248625 12.0424103,19.4248625 C13.1977531,19.4248625 14.2607689,19.62695 15.913111,20.076789 C18.0317771,20.6535817 18.4456105,20.7408095 18.9814889,20.6570374 C19.4808932,20.5789672 19.7154264,20.2024327 19.7154264,19.0044172 C19.7154264,14.7667274 16.2801001,11.3314011 12.0424103,11.3314011 Z M2.50133341,6.70237173 C1.56330649,7.24394183 1.37644268,8.88398209 2.24010856,10.3798953 C3.10377445,11.8758085 4.61752288,12.5339998 5.5555498,11.9924297 C6.49357672,11.4508596 6.68044053,9.81081934 5.81677464,8.31490615 C4.95310876,6.81899296 3.43936033,6.16080163 2.50133341,6.70237173 Z M18.1727535,8.31490615 C17.3090876,9.81081934 17.4959514,11.4508596 18.4339784,11.9924297 C19.3720053,12.5339998 20.8857537,11.8758085 21.7494196,10.3798953 C22.6130855,8.88398209 22.4262217,7.24394183 21.4881948,6.70237173 C20.5501678,6.16080163 19.0364194,6.81899296 18.1727535,8.31490615 Z M8.05292103,2.8803647 C6.99583675,3.16360958 6.4004756,4.92511399 6.92282297,6.87454092 C7.44517034,8.82396786 8.84152043,10.0517949 9.89860471,9.76854997 C10.6608942,9.56429512 11.1830781,8.59131468 11.2191621,7.3334847 C11.2153755,7.23810103 11.21536,7.14183066 11.2175044,7.04490308 C11.2070138,6.64096707 11.1460755,6.21241462 11.0287028,5.77437375 C10.5063554,3.82494681 9.11000531,2.59711982 8.05292103,2.8803647 Z M12.9071768,5.77437375 C12.7914558,6.20625014 12.7305921,6.62890328 12.7174529,7.02830308 C12.7205727,7.13287059 12.7206346,7.23719064 12.7181935,7.34060283 C12.7547281,8.59490051 13.276391,9.56467177 14.0372748,9.76854997 C15.0943591,10.0517949 16.4907092,8.82396786 17.0130566,6.87454092 C17.5354039,4.92511399 16.9400428,3.16360958 15.8829585,2.8803647 C14.8258742,2.59711982 13.4295241,3.82494681 12.9071768,5.77437375 Z"/>
  </defs>
  <g fill="none" fill-rule="evenodd">
    <mask id="pets-b" fill="#fff">
      <use xlink:href="#pets-a"/>
    </mask>
    <use fill="#CCC" fill-rule="nonzero" xlink:href="#pets-a"/>
    <g mask="url(#pets-b)">
      <rect width="24.065" height="23.988" fill="#FFFFFF" transform="translate(0 .012)"/>
    </g>
  </g>
</svg>
