<svg xmlns="http://www.w3.org/2000/svg" xmlns:xlink="http://www.w3.org/1999/xlink" width="24" height="24" viewBox="0 0 24 24">
  <defs>
    <path id="travel-a" d="M11.9859697,0.0735336091 C13.805054,0.0735336091 14.78535,2.06144867 15.2229684,5.8668491 L15.2224753,7.79953361 L23.5141169,11.9650515 C23.7675216,12.0923414 23.927464,12.3516707 23.927464,12.6352491 L23.927464,15.7426097 C23.927464,16.2331854 23.4642465,16.5916799 22.9893521,16.4686358 L15.2224753,14.4555336 L15.2224753,17.2885336 L18.9014287,19.591749 C19.1198383,19.7285158 19.2527375,19.9678357 19.2533814,20.2255322 L19.2582423,22.16992 C19.2593874,22.6291576 18.8512609,22.981571 18.397093,22.9135122 L14.4170852,22.3170931 L13.907512,22.318176 C13.3511293,23.3963757 12.7359119,23.9318923 11.9859697,23.9318923 C11.2360274,23.9318923 10.6208101,23.3963757 10.0644273,22.318176 L9.55492071,22.3170931 L5.57983586,22.9134926 C5.12637496,22.9815273 4.71855557,22.6303303 4.71855557,22.171794 L4.71855557,20.0041945 C4.71855557,19.7074929 4.89346666,19.4386819 5.16473318,19.3184891 L8.74847532,17.7295336 L8.74847532,14.4555336 L0.9825872,16.4686358 C0.507692801,16.5916799 0.0444753209,16.2331854 0.0444753209,15.7426097 L0.0444753209,12.6352491 C0.0444753209,12.3516707 0.204417681,12.0923414 0.457822395,11.9650515 L8.74847532,7.79953361 L8.74897092,5.8668491 L8.7539946,5.78018724 C9.18658933,2.06144867 10.1668854,0.0735336091 11.9859697,0.0735336091 Z M8.96298937,19.2771722 L6.21855557,20.4922076 L6.21855557,21.3008739 L9.38769063,20.8253946 L9.44058087,20.8223629 C9.27931847,20.3593848 9.12086624,19.8443916 8.96298937,19.2771722 Z M14.5313585,20.8223629 L14.5841177,20.8253749 L17.7560633,21.3007029 L17.7544207,20.6433207 L15.0911715,18.9768947 C14.9060294,19.6639308 14.7206295,20.2789731 14.5313585,20.8223629 Z M11.9859697,1.57353361 C11.274704,1.57353361 10.6000567,2.93475485 10.2489709,5.91062894 L10.2489709,18.2845146 C10.5165215,19.3074051 10.7822975,20.1531301 11.0433102,20.8180873 L11.2354753,20.8165336 L11.2359697,17.3149777 C11.2359697,16.9007641 11.5717561,16.5649777 11.9859697,16.5649777 C12.4001832,16.5649777 12.7359697,16.9007641 12.7359697,17.3149777 L12.7354753,20.8165336 L12.9286412,20.8180564 C13.1896627,20.1530717 13.4554478,19.3073074 13.7230073,18.284366 L13.7236203,13.5230345 C13.7226348,13.5022363 13.7225176,13.481297 13.723296,13.4602632 L13.7261059,8.33243439 C13.7216865,8.28550506 13.7216704,8.23796179 13.7262665,8.19043486 L13.7279921,5.95351097 C13.378346,2.94782888 12.7006429,1.57353361 11.9859697,1.57353361 Z M8.74847532,9.47853361 L1.54447532,13.0978146 L1.54447532,14.7735207 L8.74847532,12.9065336 L8.74847532,9.47853361 Z M15.2224753,9.47853361 L15.2224753,12.9065336 L22.427464,14.7735207 L22.427464,13.0978146 L15.2224753,9.47853361 Z"/>
  </defs>
  <g fill="none" fill-rule="evenodd">
    <mask id="travel-b" fill="#fff">
      <use xlink:href="#travel-a"/>
    </mask>
    <use fill="#CCC" fill-rule="nonzero" xlink:href="#travel-a"/>
    <g mask="url(#travel-b)">
      <rect width="24.065" height="23.988" fill="#FFFFFF" transform="translate(-.065 .012)"/>
    </g>
  </g>
</svg>
