<?xml version="1.0" encoding="UTF-8"?>
<svg width="24px" height="24px" viewBox="0 0 24 24" version="1.1" xmlns="http://www.w3.org/2000/svg" xmlns:xlink="http://www.w3.org/1999/xlink">
    <!-- Generator: Sketch 59.1 (86144) - https://sketch.com -->
    <title>nb_close</title>
    <desc>Created with Sketch.</desc>
    <defs>
        <path d="M12.1108777,-4.46078851 C12.5449165,-4.46078851 12.8967744,-4.10893056 12.8967744,-3.67489178 L12.8963837,11.2462115 L27.8184749,11.2468087 C28.2525137,11.2468087 28.6043716,11.5986666 28.6043716,12.0327054 C28.6043716,12.4667442 28.2525137,12.8186022 27.8184749,12.8186022 L12.8963837,12.8182115 L12.8967744,27.7403026 C12.8967744,28.1743414 12.5449165,28.5261994 12.1108777,28.5261994 C11.6768389,28.5261994 11.3249809,28.1743414 11.3249809,27.7403026 L11.3243837,12.8182115 L-3.59671952,12.8186022 C-4.0307583,12.8186022 -4.38261625,12.4667442 -4.38261625,12.0327054 C-4.38261625,11.5986666 -4.0307583,11.2468087 -3.59671952,11.2468087 L11.3243837,11.2462115 L11.3249809,-3.67489178 C11.3249809,-4.10893056 11.6768389,-4.46078851 12.1108777,-4.46078851 Z" id="path-1"></path>
    </defs>
    <g id="nb_close" stroke="none" stroke-width="1" fill="none" fill-rule="evenodd">
        <mask id="mask-2" fill="white">
            <use xlink:href="#path-1"></use>
        </mask>
        <use id="Combined-Shape" fill="#000000" fill-rule="nonzero" transform="translate(12.110878, 12.032705) rotate(-315.000000) translate(-12.110878, -12.032705) " xlink:href="#path-1"></use>
    </g>
</svg>