<svg xmlns="http://www.w3.org/2000/svg" xmlns:xlink="http://www.w3.org/1999/xlink" width="24" height="24" viewBox="0 0 24 24">
  <defs>
    <path id="favourite-a" d="M17.5384615,2 C21.1070707,2 24,4.86148443 24,8.39130435 C24,12.0434783 20,16.9130435 12,23 C4,16.9130435 0,12.0434783 0,8.39130435 C0,4.86148443 2.89292931,2 6.46153846,2 C8.81234425,2 10.8699416,4.23085971 12.0005077,6.08738483 C13.1300584,4.23085971 15.1876557,2 17.5384615,2 Z M17.5384615,3.5 C16.2090272,3.5 14.6199797,4.77759035 13.4287459,6.63226065 L13.2819612,6.86704939 L12.0010832,8.97229527 L10.7193653,6.86756067 C9.51260058,4.88590819 7.84629222,3.5 6.46153846,3.5 C3.71770893,3.5 1.5,5.6936034 1.5,8.39130435 C1.5,11.241808 4.86738796,15.4967189 11.6924746,20.8659043 L12,21.105 L12.3075254,20.8659043 C19.0013604,15.5999725 22.3692063,11.4058705 22.4962634,8.55731256 L22.5,8.39130435 C22.5,5.6936034 20.2822911,3.5 17.5384615,3.5 Z"/>
  </defs>
  <g fill="none" fill-rule="evenodd">
    <mask id="favourite-b" fill="#fff">
      <use xlink:href="#favourite-a"/>
    </mask>
    <use fill="#CCC" fill-rule="nonzero" xlink:href="#favourite-a"/>
    <g fill="#E60202" mask="url(#favourite-b)">
      <rect width="24" height="24"/>
    </g>
  </g>
</svg>
