<svg xmlns="http://www.w3.org/2000/svg" xmlns:xlink="http://www.w3.org/1999/xlink" width="24" height="24" viewBox="0 0 24 24">
  <defs>
    <path id="plus_red_big-a" d="M11.75,1 C12.1296958,1 12.443491,1.28215388 12.4931534,1.64822944 L12.5,1.75 L12.5,11 L21.75,11 C22.1642136,11 22.5,11.3357864 22.5,11.75 C22.5,12.1296958 22.2178461,12.443491 21.8517706,12.4931534 L21.75,12.5 L12.5,12.5 L12.5,21.75 C12.5,22.1642136 12.1642136,22.5 11.75,22.5 C11.3703042,22.5 11.056509,22.2178461 11.0068466,21.8517706 L11,21.75 L11,12.5 L1.75,12.5 C1.33578644,12.5 1,12.1642136 1,11.75 C1,11.3703042 1.28215388,11.056509 1.64822944,11.0068466 L1.75,11 L11,11 L11,1.75 C11,1.33578644 11.3357864,1 11.75,1 Z"/>
  </defs>
  <g fill="none" fill-rule="evenodd">
    <mask id="plus_red_big-b" fill="#fff">
      <use xlink:href="#plus_red_big-a"/>
    </mask>
    <use fill="#979797" fill-rule="nonzero" xlink:href="#plus_red_big-a"/>
    <g fill="#E60202" mask="url(#plus_red_big-b)">
      <rect width="24" height="24"/>
    </g>
  </g>
</svg>
