<svg xmlns="http://www.w3.org/2000/svg" xmlns:xlink="http://www.w3.org/1999/xlink" width="24" height="24" viewBox="0 0 24 24">
  <defs>
    <path id="repeat-a" d="M13.632482,2 C19.3583041,2 24,6.64169593 24,12.367518 C24,18.0933401 19.3583041,22.735036 13.632482,22.735036 C9.58189789,22.735036 6.07386338,20.4121051 4.36786297,17.0257279 L4.36265956,17.0153675 L4.36265956,17.0153675 L4.35734518,17.0046625 C4.18623113,16.6609947 4.3261136,16.2436815 4.66978142,16.0725675 C4.77220464,16.0215704 4.88563238,15.996644 5,16 L5,16 C5.40523265,16.0118911 5.78076039,16.3768032 5.86634837,16.5359272 C5.96088988,16.7116976 6.06122433,16.8838896 6.16709623,17.0522477 C7.72643205,19.5319134 10.4870021,21.1799083 13.632482,21.1799083 C18.4994308,21.1799083 22.4448723,17.2344668 22.4448723,12.367518 C22.4448723,7.50056924 18.4994308,3.5551277 13.632482,3.5551277 C8.92082551,3.5551277 5.07280843,7.25280747 4.83204387,11.9045538 L6.91528931,9.70605533 C7.21054015,9.39421757 7.70268269,9.38077121 8.01452045,9.67602204 C8.29800932,9.94443189 8.33489373,10.3755622 8.11743079,10.6860195 L8.04455374,10.7752532 L4.85682166,14.1420692 C4.69950366,14.3082252 4.48628693,14.3896661 4.27423117,14.3848328 C4.06618072,14.4294209 3.84238229,14.3872704 3.66114935,14.2576411 L3.57263875,14.1838876 L0.237423357,10.9631076 C-0.0714875227,10.6647958 -0.0800797996,10.1725446 0.218231969,9.86363369 C0.489424486,9.58280562 0.920897538,9.55017474 1.22919524,9.77068879 L1.31770583,9.8444423 L3.28343123,11.7435526 C3.60607846,6.30824658 8.11615777,2 13.632482,2 Z"/>
  </defs>
  <g fill="none" fill-rule="evenodd">
    <mask id="repeat-b" fill="#fff">
      <use xlink:href="#repeat-a"/>
    </mask>
    <use fill="#CCC" fill-rule="nonzero" xlink:href="#repeat-a"/>
    <g fill="#E60202" mask="url(#repeat-b)">
      <rect width="24" height="24"/>
    </g>
  </g>
</svg>
