<svg xmlns="http://www.w3.org/2000/svg" xmlns:xlink="http://www.w3.org/1999/xlink" width="24" height="24" viewBox="0 0 24 24">
  <defs>
    <path id="shuffle-a" d="M20.5518461,2.1534775 L20.6396403,2.22926886 L23.7707316,5.36036023 L23.7707316,5.36036023 C24.0486333,5.63826188 24.0738971,6.07313256 23.846523,6.37957403 L23.7707316,6.4673682 L20.6396403,9.59845957 C20.3339484,9.90415138 19.8383241,9.90415138 19.5326323,9.59845957 C19.2547306,9.32055793 19.2294669,8.88568724 19.4568409,8.57924577 L19.5326323,8.4914516 L21.5,6.523 L18.5607164,6.51208129 C16.9223426,6.50579018 15.3722526,7.23260964 14.3297108,8.48427629 L14.1607252,8.69771139 L11.893,11.711 L14.1502139,14.7425357 C15.1256495,16.0522076 16.6310643,16.8547083 18.2524522,16.9411746 L18.5236863,16.9489199 L21.152,16.958 L19.5326323,15.3387938 C19.2269405,15.0331019 19.2269405,14.5374776 19.5326323,14.2317858 C19.8105339,13.9538841 20.2454046,13.9286204 20.5518461,14.1559944 L20.6396403,14.2317858 L23.7707316,17.3628772 L23.7707316,17.3628772 C24.0486333,17.6407788 24.0738971,18.0756495 23.846523,18.382091 L23.7707316,18.4698851 L20.6396403,21.6009765 C20.3339484,21.9066683 19.8383241,21.9066683 19.5326323,21.6009765 C19.2547306,21.3230749 19.2294669,20.8882042 19.4568409,20.5817627 L19.5326323,20.4939685 L21.5,18.525 L18.5176827,18.5144541 C16.3978308,18.5063247 14.3998362,17.5444957 13.0715711,15.9053645 L12.8946467,15.6776744 L10.912,13.015 L8.5268714,16.1877912 C7.25086217,17.8842163 5.28160779,18.9106771 3.17061106,18.9926283 L2.8819211,18.9979233 L0.781212672,18.9935832 C0.348901773,18.9925767 -0.000817050637,18.6413784 1.43376194e-06,18.2090642 C0.000931925697,17.8127793 0.296105753,17.4858945 0.678286318,17.4348685 L0.784518802,17.427947 L2.88522558,17.4323811 C4.52044861,17.4358326 6.06665362,16.7091367 7.10709079,15.4597568 L7.27574249,15.2467228 L9.937,11.707 L7.29417426,8.15818102 C6.31685596,6.84598129 4.80763483,6.04305431 3.18301514,5.95907283 L2.9112481,5.95176878 L0.781261923,5.94727552 C0.348949381,5.94636355 -0.000769878513,5.59516569 4.80544142e-05,5.16285151 C0.00097806996,4.76656665 0.296151492,4.43968145 0.678331993,4.38865503 L0.784564469,4.38173332 L2.91455065,4.38622657 C5.03850503,4.3907071 7.04153691,5.35276185 8.37246843,6.99492193 L8.54974142,7.22304232 L10.918,10.403 L12.9095963,7.75664298 C14.1880708,6.05694046 16.162307,5.02997935 18.2774744,4.95136344 L18.5667278,4.94654715 L21.152,4.956 L19.5326323,3.33627683 C19.2269405,3.03058502 19.2269405,2.53496067 19.5326323,2.22926886 C19.8105339,1.95136721 20.2454046,1.92610343 20.5518461,2.1534775 Z"/>
  </defs>
  <g fill="none" fill-rule="evenodd">
    <mask id="shuffle-b" fill="#fff">
      <use xlink:href="#shuffle-a"/>
    </mask>
    <use fill="#CCC" fill-rule="nonzero" xlink:href="#shuffle-a"/>
    <g fill="#E60202" mask="url(#shuffle-b)">
      <rect width="24" height="24"/>
    </g>
  </g>
</svg>
