<svg xmlns="http://www.w3.org/2000/svg" xmlns:xlink="http://www.w3.org/1999/xlink" width="24" height="24" viewBox="0 0 24 24">
  <defs>
    <path id="skip_back-a" d="M19.6776942,0.859763455 C20.143156,0.564094868 20.75,0.900494167 20.75,1.45418793 L20.75,1.45418793 L20.75,22.5458121 C20.75,23.0995058 20.143156,23.4359051 19.6776942,23.1402365 L19.6776942,23.1402365 L3.5,12.864 L3.5,21 L3.49315338,21.1017706 C3.44349096,21.4678461 3.12969577,21.75 2.75,21.75 C2.33578644,21.75 2,21.4142136 2,21 L2,21 L2,3 L2.00684662,2.89822944 C2.05650904,2.53215388 2.37030423,2.25 2.75,2.25 C3.16421356,2.25 3.5,2.58578644 3.5,3 L3.5,3 L3.5,11.135 Z"/>
  </defs>
  <g fill="none" fill-rule="evenodd">
    <mask id="skip_back-b" fill="#fff">
      <use xlink:href="#skip_back-a"/>
    </mask>
    <use fill="#CCC" fill-rule="nonzero" xlink:href="#skip_back-a"/>
    <g fill="#E60202" mask="url(#skip_back-b)">
      <rect width="24" height="24"/>
    </g>
  </g>
</svg>
