<svg xmlns="http://www.w3.org/2000/svg" xmlns:xlink="http://www.w3.org/1999/xlink" width="24" height="24" viewBox="0 0 24 24">
  <defs>
    <path id="cart-a" d="M2.75402203,2.82815509 L0.42520346,1.47503934 C0.0510134099,1.25762332 -0.0760770574,0.77803185 0.141338956,0.4038418 C0.358754969,0.0296517499 0.838346442,-0.0974387173 1.21253649,0.119977296 L3.84876561,1.6517081 C4.04412198,1.7652162 4.18097619,1.95752384 4.22421281,2.17928676 L7.42689076,18.605994 L20.1435339,18.605994 C20.5763017,18.605994 20.9271292,18.9568216 20.9271292,19.3895893 C20.9271292,19.8223571 20.5763017,20.1731846 20.1435339,20.1731846 L6.78131698,20.1731846 C6.40636458,20.1731846 6.08395587,19.9075646 6.01220327,19.5395417 L2.75402203,2.82815509 Z M6.68159825,6.02465397 C6.6054596,6.02465397 6.52946679,6.03131221 6.45448823,6.0445526 C5.74419837,6.16998201 5.2700753,6.84746632 5.3955047,7.55775618 L6.58809906,14.3112578 C6.70395849,14.9673542 6.7813424,15.1865069 6.93087752,15.4022787 C7.04938274,15.5732759 7.19889834,15.698702 7.38789799,15.7856655 C7.62638609,15.8953998 7.85565667,15.9334944 8.5219043,15.9334944 L19.1116021,15.9334944 C19.7778497,15.9334944 20.0071203,15.8953998 20.2456084,15.7856655 C20.434608,15.698702 20.5841236,15.5732759 20.7026289,15.4022787 C20.852164,15.1865069 20.9295479,14.9673542 21.0454073,14.3112578 L22.2380017,7.55775618 C22.2512421,7.48277761 22.2579003,7.4067848 22.2579003,7.33064615 C22.2579003,6.60936659 21.6731877,6.02465397 20.9519081,6.02465397 L6.68159825,6.02465397 Z M6.68159825,4.45746335 L20.9519081,4.45746335 C22.5387232,4.45746335 23.8250909,5.74383111 23.8250909,7.33064615 C23.8250909,7.49815118 23.8104428,7.66533535 23.7813139,7.8302882 L22.5887196,14.5837898 C22.4368358,15.4438874 22.2875522,15.8666614 21.9907285,16.2949633 C21.7125184,16.6964066 21.3444002,17.0052148 20.9006932,17.2093755 C20.4272999,17.4271957 19.9850072,17.500685 19.1116021,17.500685 L8.5219043,17.500685 C7.64849921,17.500685 7.2062065,17.4271957 6.73281322,17.2093755 C6.28910622,17.0052148 5.92098793,16.6964066 5.6427779,16.2949633 C5.3459542,15.8666614 5.1966706,15.4438874 5.0447868,14.5837898 L3.85219244,7.8302882 C3.57624775,6.26765053 4.61931852,4.77718503 6.1819562,4.50124034 C6.34690905,4.47211148 6.51409322,4.45746335 6.68159825,4.45746335 Z M9.79995011,23.8990776 C8.41647684,23.8990776 7.29495015,22.7775509 7.29495015,21.3940777 C7.29495015,20.0106044 8.41647684,18.8890777 9.79995011,18.8890777 C11.1834234,18.8890777 12.3049501,20.0106044 12.3049501,21.3940777 C12.3049501,22.7775509 11.1834234,23.8990776 9.79995011,23.8990776 Z M9.79995011,22.331887 C10.3178879,22.331887 10.7377595,21.9120155 10.7377595,21.3940777 C10.7377595,20.8761399 10.3178879,20.4562683 9.79995011,20.4562683 C9.28201232,20.4562683 8.86214077,20.8761399 8.86214077,21.3940777 C8.86214077,21.9120155 9.28201232,22.331887 9.79995011,22.331887 Z M17.8331718,24 C16.4496985,24 15.3281719,22.8784733 15.3281719,21.495 C15.3281719,20.1115268 16.4496985,18.9900001 17.8331718,18.9900001 C19.2166451,18.9900001 20.3381718,20.1115268 20.3381718,21.495 C20.3381718,22.8784733 19.2166451,24 17.8331718,24 Z M17.8331718,22.4328094 C18.3511096,22.4328094 18.7709812,22.0129378 18.7709812,21.495 C18.7709812,20.9770622 18.3511096,20.5571907 17.8331718,20.5571907 C17.315234,20.5571907 16.8953625,20.9770622 16.8953625,21.495 C16.8953625,22.0129378 17.315234,22.4328094 17.8331718,22.4328094 Z"/>
  </defs>
  <g fill="none" fill-rule="evenodd">
    <mask id="cart-b" fill="#fff">
      <use xlink:href="#cart-a"/>
    </mask>
    <use fill="#E60202" fill-rule="nonzero" xlink:href="#cart-a"/>
    <g mask="url(#cart-b)">
      <rect width="24.02" height="24.075" fill="#E60202" transform="translate(-.02 -.075)"/>
    </g>
  </g>
</svg>
