<svg xmlns="http://www.w3.org/2000/svg" xmlns:xlink="http://www.w3.org/1999/xlink" width="24" height="24" viewBox="0 0 24 24">
  <defs>
    <path id="nav_back-a" d="M17.0091025,1.19958619 C17.3227233,0.914476364 17.8080903,0.937589082 18.0932002,1.25120989 C18.3523909,1.53631972 18.3568523,1.96336861 18.1198934,2.25286481 L18.0415765,2.3353076 L7.61863042,11.8107131 C7.51409015,11.9057497 7.50638591,12.0675387 7.60142252,12.172079 L18.0415765,21.6646924 C18.3551973,21.9498022 18.37831,22.4351693 18.0932002,22.7487901 C17.8340094,23.0338999 17.4093168,23.0789204 17.0986141,22.8705425 L17.0091025,22.8004138 L6.58615641,13.3250083 C6.54411647,13.2867902 6.50391923,13.246593 6.46570111,13.204553 C5.83740353,12.5134257 5.85060205,11.464847 6.47047626,10.7900454 L6.58615641,10.6749917 L17.0091025,1.19958619 Z"/>
  </defs>
  <g fill="none" fill-rule="evenodd">
    <mask id="nav_back-b" fill="#fff">
      <use xlink:href="#nav_back-a"/>
    </mask>
    <use fill="#4A4A4A" fill-rule="nonzero" xlink:href="#nav_back-a"/>
    <g fill="#282828" mask="url(#nav_back-b)">
      <rect width="24" height="24"/>
    </g>
  </g>
</svg>
