<svg xmlns="http://www.w3.org/2000/svg" xmlns:xlink="http://www.w3.org/1999/xlink" width="24" height="24" viewBox="0 0 24 24">
  <defs>
    <path id="reactions-a" d="M10.2950616,3.5942518 L10.7208984,3.60730389 C11.4305164,3.64403153 12.1389827,3.75566734 12.8372695,3.94277274 C13.2373691,4.0499791 13.474806,4.46123182 13.3675996,4.8613314 C13.2871949,5.16140608 13.035764,5.36998299 12.7462819,5.41028909 L12.6485609,5.4173869 C12.5827173,5.41782351 12.5157242,5.40952921 12.449041,5.39166148 C11.6142616,5.16798301 10.7639971,5.07079197 9.91824011,5.0983548 C9.25174315,5.12007563 8.59686716,5.21903243 7.96502946,5.38853165 L7.61760294,5.49050149 L7.61760294,5.49050149 L7.28028496,5.60333354 L7.1775768,5.64 L7.1355768,5.656 L7.03224951,5.69631861 L7.03224951,5.69631861 L6.8755768,5.759 L6.98949268,5.71294103 L6.8754672,5.75919908 L6.8754672,5.75919908 L6.7635768,5.806 L6.85415348,5.7687544 C5.79141261,6.21472766 4.82244295,6.86936574 4.0106726,7.69548301 C3.309651,8.41194446 2.73904267,9.24361541 2.32252147,10.1490936 C2.29836883,10.1987791 2.27584217,10.2492647 2.25378709,10.2999954 L2.25476124,10.3001586 L2.17952111,10.4761081 L2.12777797,10.6063457 L2.09284046,10.6968143 L2.09284046,10.6968143 L2.05913725,10.7875537 L2.00175349,10.9498694 C1.99136175,10.9802106 1.98113063,11.0106268 1.9710607,11.0411171 L1.94249443,11.1261806 C1.94185475,11.1281732 1.94121578,11.130166 1.94057752,11.1321591 C1.90140114,11.2580132 1.86250808,11.3906229 1.82663265,11.5245118 C1.63359118,12.2449524 1.53718012,12.96852 1.52945465,13.681454 C1.52168593,14.4616402 1.62042136,15.2444788 1.82663265,16.0140698 C1.89184397,16.2574418 1.96678341,16.4956093 2.05092049,16.728266 C2.05905553,16.7513168 2.06728221,16.7736329 2.07559917,16.795912 L2.07554266,16.7954875 L2.12513196,16.9254383 C2.13391428,16.9478664 2.14278865,16.9702554 2.15175474,16.9926047 L2.1895768,17.087 L2.2075768,17.131 L2.1955768,17.1 L2.34258284,17.4327877 C2.76919371,18.3470364 3.35327416,19.1846539 4.07017524,19.902947 C4.75242593,20.5838764 5.54176024,21.1447006 6.40209434,21.5647688 L6.60053995,21.659825 C6.60950777,21.6639077 6.61848505,21.6679762 6.62747178,21.6720305 L6.64216333,21.6774972 L6.80440671,21.7494885 C6.81734025,21.7549794 6.83029257,21.7604413 6.84326362,21.7658739 L7.01951342,21.8374311 L7.17100358,21.8953871 L7.17100358,21.8953871 L7.24230851,21.9215546 C7.47591087,22.0061296 7.71507242,22.0814305 7.95948296,22.1469201 C8.49464816,22.2903172 9.03153887,22.3803939 9.56451468,22.4204068 L9.96342435,22.4410803 L10.0634602,22.4433612 L10.0634602,22.4433612 C10.1137784,22.4442161 10.1640454,22.4446289 10.2142564,22.4446023 L10.3298278,22.4437651 L10.3298278,22.4437651 L10.3655768,22.442 L10.6970621,22.4301787 C11.2782164,22.3965114 11.8646575,22.3035052 12.449041,22.1469201 C12.6172896,22.101838 12.7830509,22.0521066 12.9462236,21.9979012 L13.1581278,21.9247449 C13.183937,21.9153714 13.2096977,21.9058771 13.2354091,21.8962626 L13.262405,21.8860885 L13.34534,21.8543055 C14.4635528,21.4188355 15.4849683,20.7547137 16.3380598,19.9032362 C17.1263994,19.1133662 17.7539573,18.1796007 18.1882822,17.1583585 L18.1886777,17.1591935 L18.2004271,17.1312869 C18.2089265,17.1110003 18.2173544,17.090668 18.2257104,17.07029 L18.2782765,16.9390628 L18.2825768,16.925 L18.305923,16.8674554 L18.305923,16.8674554 L18.3095768,16.856 L18.3045768,16.867 L18.3185768,16.831 L18.3095768,16.856 L18.3305768,16.799 L18.3445768,16.762 L18.3565768,16.728 L18.3594245,16.7239593 L18.3329813,16.7954875 C18.3597265,16.7233878 18.3855853,16.6507511 18.4105415,16.5775867 L18.4109292,16.5781611 L18.4364867,16.5003483 L18.512461,16.2590279 L18.512461,16.2590279 L18.5818913,16.0140698 C18.9662243,14.5848639 18.990028,13.0476987 18.5818913,11.5245118 C18.4746849,11.1244122 18.7121218,10.7131595 19.1122214,10.6059531 C19.512321,10.4987468 19.9235737,10.7361836 20.03078,11.1362832 C20.559082,13.107933 20.470365,15.0995504 19.8829934,16.9061225 L19.8688478,16.9464981 L19.8688478,16.9464981 L19.8354899,17.0486461 C19.7709942,17.2374984 19.7010236,17.4242465 19.6257155,17.6086523 C19.0800002,18.9539505 18.2671434,20.1306753 17.2671779,21.0931788 C16.4510594,21.8822156 15.4940711,22.5419052 14.4219248,23.0287062 L14.303558,23.0803759 L14.2262461,23.1140906 L14.2123307,23.1200785 L14.2123307,23.1200785 C14.0812445,23.1770201 13.948565,23.2304296 13.8142795,23.28121 C13.7660158,23.299553 13.7175857,23.3175601 13.669009,23.3352025 L13.6230416,23.3517727 L13.4836173,23.4005187 C12.6618676,23.6811574 11.8002773,23.8581352 10.9184617,23.9201272 C10.9143563,23.9195394 10.9103603,23.9198226 10.9063644,23.9201034 L10.9044682,23.9211012 L10.8654686,23.9237125 C10.7754396,23.9295657 10.6852042,23.9342201 10.5947833,23.9376638 L10.3229849,23.9443507 L10.085539,23.9443507 C9.90399677,23.9423303 9.72311336,23.9354189 9.54305535,23.9237125 L9.52421507,23.921629 C9.5168639,23.9211285 9.50951206,23.92062 9.50215956,23.9201034 L9.4657954,23.9183918 C8.59243978,23.854879 7.73911676,23.6785826 6.92490667,23.4005187 L6.8205396,23.3637502 C6.79116105,23.3534246 6.76185623,23.3429744 6.73262558,23.3324004 C6.7132318,23.325638 6.69395922,23.3185566 6.67471007,23.3114177 L6.61323024,23.2883679 C6.4727467,23.2355625 6.33401466,23.1798822 6.19708417,23.1214137 C6.17241815,23.1098718 6.14769301,23.0991412 6.12301272,23.0883139 C4.97594677,22.5887777 3.95750308,21.8920199 3.09707011,21.0506235 L2.92292931,20.8764827 C2.11494305,20.0502158 1.44033693,19.0782376 0.944846528,17.9869537 L0.895387935,17.8735969 L0.859462161,17.7912749 L0.859462161,17.7912749 L0.851277421,17.7744501 C0.792152975,17.6359006 0.73588275,17.4955074 0.682556521,17.3533224 C0.207064956,16.0932559 -0.0218792604,14.7316676 0.037910196,13.3415769 L0.0395509072,13.2966991 C0.0465084631,13.1462968 0.0568126019,12.9964226 0.0704085094,12.847173 C0.074446721,12.8132659 0.077751944,12.7792903 0.0812316981,12.7453041 C0.0873529011,12.6747901 0.0952348804,12.6043968 0.103846382,12.5341586 L0.111831209,12.4807324 L0.111831209,12.4807324 C0.202712862,11.7611077 0.371247059,11.058744 0.609968255,10.3839697 L0.630290005,10.3279472 L0.630290005,10.3279472 C0.658174295,10.2496825 0.687357716,10.171705 0.717479641,10.0941227 C0.924459761,9.55761123 1.17538453,9.04258405 1.46766956,8.55255712 C1.96792388,7.71386177 2.58102705,6.96246637 3.28116404,6.31350207 C3.75321126,5.87349571 4.2710062,5.47611054 4.82917715,5.12913125 C5.40030963,4.77409459 6.0069062,4.47606407 6.64254758,4.23929795 C6.66719384,4.22994453 6.69197913,4.2207683 6.71680315,4.21168734 C6.74639878,4.20086086 6.77604945,4.19016981 6.80575424,4.17961472 C6.84525523,4.16612438 6.88487473,4.15240057 6.92460116,4.13891225 C7.01080836,4.10877101 7.09742512,4.08048305 7.18446019,4.05334775 L7.2415768,4.036 L7.2955768,4.02 L7.2665768,4.028 L7.2415768,4.036 L7.22340946,4.04128992 L7.3105768,4.015 L7.37735588,3.99660623 L7.37735588,3.99660623 L7.4975768,3.962 L7.3795768,3.996 L7.3105768,4.015 L7.2955768,4.02 L7.3795768,3.996 L7.57125439,3.94277274 L7.57125439,3.94277274 L7.4975768,3.962 L7.5898332,3.93613109 C8.32726518,3.73938599 9.09147701,3.62450228 9.86938174,3.59915072 C10.0112007,3.59452891 10.1531181,3.59289444 10.2950616,3.5942518 Z M15.9624034,13.0192908 C16.376617,13.0192908 16.7124034,13.3550772 16.7124034,13.7692908 C16.7124034,17.3636381 13.7986092,20.2774323 10.204262,20.2774323 C6.6099147,20.2774323 3.69612052,17.3636381 3.69612052,13.7692908 C3.69612052,13.3550772 4.03190696,13.0192908 4.44612052,13.0192908 C4.86033408,13.0192908 5.19612052,13.3550772 5.19612052,13.7692908 C5.19612052,16.535211 7.43834182,18.7774323 10.204262,18.7774323 C12.9701821,18.7774323 15.2124034,16.535211 15.2124034,13.7692908 C15.2124034,13.3550772 15.5481899,13.0192908 15.9624034,13.0192908 Z M7.36519563,9.39130435 C8.08556705,9.39130435 8.66954346,9.97528076 8.66954346,10.6956522 C8.66954346,11.4160236 8.08556705,12 7.36519563,12 C6.64482422,12 6.06084781,11.4160236 6.06084781,10.6956522 C6.06084781,9.97528076 6.64482422,9.39130435 7.36519563,9.39130435 Z M13.0433283,9.39130435 C13.7636997,9.39130435 14.3476761,9.97528076 14.3476761,10.6956522 C14.3476761,11.4160236 13.7636997,12 13.0433283,12 C12.3229569,12 11.7389805,11.4160236 11.7389805,10.6956522 C11.7389805,9.97528076 12.3229569,9.39130435 13.0433283,9.39130435 Z M20,0.25 C20.3796958,0.25 20.693491,0.532153882 20.7431534,0.898229443 L20.75,1 L20.7495768,3.249 L23,3.25 C23.3796958,3.25 23.693491,3.53215388 23.7431534,3.89822944 L23.75,4 C23.75,4.37969577 23.4678461,4.69349096 23.1017706,4.74315338 L23,4.75 L20.7495768,4.75 L20.75,7 C20.75,7.37969577 20.4678461,7.69349096 20.1017706,7.74315338 L20,7.75 C19.6203042,7.75 19.306509,7.46784612 19.2568466,7.10177056 L19.25,7 L19.2495768,4.75 L17,4.75 C16.6203042,4.75 16.306509,4.46784612 16.2568466,4.10177056 L16.25,4 C16.25,3.62030423 16.5321539,3.30650904 16.8982294,3.25684662 L17,3.25 L19.2495768,3.25 L19.25,1 C19.25,0.620304234 19.5321539,0.306509039 19.8982294,0.256846616 L20,0.25 Z"/>
  </defs>
  <g fill="none" fill-rule="evenodd">
    <mask id="reactions-b" fill="#fff">
      <use xlink:href="#reactions-a"/>
    </mask>
    <use fill="#FFF" fill-rule="nonzero" xlink:href="#reactions-a"/>
    <g fill="#FFF" mask="url(#reactions-b)">
      <rect width="24" height="24"/>
    </g>
  </g>
</svg>
