<svg xmlns="http://www.w3.org/2000/svg" xmlns:xlink="http://www.w3.org/1999/xlink" width="24" height="24" viewBox="0 0 24 24">
  <defs>
    <path id="send-a" d="M1.73580725,2.23013497 L2.4964255,9.38376814 L13.6016394,11.2346371 C14.4744633,11.3801078 14.4744633,12.6346675 13.6016394,12.7801381 L2.4964255,14.6310071 L1.73580725,21.7846403 L21.4531533,12.0073876 L1.73580725,2.23013497 Z M8.70755287,12.0073876 L1.65156467,10.8313896 C1.30447639,10.7735415 1.03854181,10.4913727 1.0013379,10.1414691 L0.0269636343,0.977455399 C-0.0383795054,0.36290158 0.600329548,-0.0817883777 1.15401308,0.192767021 L23.5646213,11.3055293 C24.1451262,11.5933846 24.1451262,12.4213906 23.5646213,12.709246 L1.15401308,23.8220082 C0.600329548,24.0965636 -0.0383795054,23.6518737 0.0269636343,23.0373199 L1.0013379,13.8733061 C1.03854181,13.5234025 1.30447639,13.2412337 1.65156467,13.1833857 L8.70755287,12.0073876 Z"/>
  </defs>
  <g fill="none" fill-rule="evenodd">
    <mask id="send-b" fill="#fff">
      <use xlink:href="#send-a"/>
    </mask>
    <use fill="#FFF" fill-rule="nonzero" xlink:href="#send-a"/>
    <g mask="url(#send-b)">
      <rect width="24" height="23.795" fill="#FFF" transform="translate(.05 .102)"/>
    </g>
  </g>
</svg>
