<svg xmlns="http://www.w3.org/2000/svg" xmlns:xlink="http://www.w3.org/1999/xlink" width="24" height="24" viewBox="0 0 24 24">
  <defs>
    <path id="share-a" d="M12.4837931,20.4463723 C12.7189293,20.555738 12.9978118,20.5229283 13.1946701,20.3588798 L23.7593955,11.6096248 C23.9125075,11.4838542 24,11.2924643 24,11.095606 C24,10.8932795 23.9125075,10.7073579 23.7539272,10.5815873 L13.1946701,1.86514203 C12.9923436,1.7010935 12.7189293,1.66281551 12.4837931,1.77764948 C12.2486569,1.88701517 12.1010132,2.12215139 12.1010132,2.38462904 L12.1010132,6.96158306 C-0.0112366752,7.39904581 0.0379778841,16.5857636 0.0598510216,21.036947 L0.0598510216,21.5673706 C0.0598510216,21.8735945 0.262177543,22.1360722 0.557464899,22.2126282 C0.612147743,22.229033 0.672298871,22.2345013 0.726981715,22.2345013 C0.962117943,22.2345013 1.1863176,22.1087308 1.31208814,21.8954677 C4.88834612,15.5960041 7.83028311,15.2897802 12.1010132,15.2733753 L12.1010132,19.8393928 C12.1010132,20.0964021 12.2487116,20.3315384 12.4837931,20.4463723 Z M1.41057194,19.2050718 C1.47072307,17.2638308 1.72773244,14.9507465 2.78857961,12.9931007 C4.47281119,9.87617863 7.73737696,8.33412244 12.7736669,8.28490788 C13.1400419,8.2794396 13.4353293,7.98415224 13.4353293,7.61777719 L13.4353293,3.8009147 L22.2775451,11.095606 L13.4407976,18.4121705 L13.4407976,14.6007763 C13.4407976,14.4257912 13.3697099,14.2508061 13.2439393,14.1250356 C13.1181688,13.999265 12.948652,13.9281774 12.7681986,13.9281774 C8.08187888,13.9336456 4.85012281,14.2125281 1.41057194,19.2050718 Z"/>
  </defs>
  <g fill="none" fill-rule="evenodd">
    <mask id="share-b" fill="#fff">
      <use xlink:href="#share-a"/>
    </mask>
    <path stroke="#FFF" stroke-width="1.5"/>
    <g mask="url(#share-b)">
      <rect width="23.942" height="23.934" fill="#FFF" transform="translate(-.023 .066)"/>
    </g>
  </g>
</svg>
