<svg xmlns="http://www.w3.org/2000/svg" xmlns:xlink="http://www.w3.org/1999/xlink" width="24" height="24" viewBox="0 0 24 24">
  <defs>
    <path id="helps_upport-a" d="M8.85486302,19.0971726 C8.85486302,18.6640755 9.20595753,18.312981 9.63905456,18.312981 L13.8379236,18.312981 C14.2710206,18.312981 14.6221152,18.6640755 14.6221152,19.0971726 L14.6221152,23.2158085 C14.6221152,23.6489055 14.2710206,24 13.8379236,24 L9.63905456,24 C9.20595753,24 8.85486302,23.6489055 8.85486302,23.2158085 L8.85486302,19.0971726 Z M10.4232461,22.4316169 L13.0537321,22.4316169 L13.0537321,19.8813641 L10.4232461,19.8813641 L10.4232461,22.4316169 Z M4.17377464,9.27863667 C3.7349961,9.27863667 3.38159338,8.91862887 3.3895802,8.47992555 C3.4122377,7.26383597 3.62219827,6.14026319 4.02166636,5.11305953 C4.42331362,4.08025228 4.98934276,3.17922631 5.71822418,2.41563625 C6.45140205,1.64754514 7.33488241,1.04887095 8.36205563,0.621843885 C9.38901245,0.19490678 10.5287271,-0.0169999651 11.7758905,-0.0169999651 C13.3520176,-0.0169999651 14.6868424,0.202654752 15.7809076,0.651797279 C16.8627855,1.09593666 17.7479632,1.65712771 18.430861,2.34002548 C19.11255,3.02171454 19.6078966,3.76771847 19.9093686,4.57566341 C20.2012514,5.35790924 20.3499044,6.10117435 20.3499044,6.80508605 C20.3499044,7.89945929 20.2042194,8.82018884 19.9019493,9.56981861 C19.611389,10.2904082 19.2463175,10.9145627 18.8050308,11.4393361 C18.374536,11.9512758 17.8949435,12.3899275 17.3670547,12.7535842 C16.9096363,13.0686947 16.4782737,13.3833356 16.0729641,13.6974505 C15.7080082,13.9802914 15.3846711,14.3036285 15.1018302,14.6685844 C14.8677126,14.9706717 14.7151578,15.3618379 14.6561386,15.7524323 L14.6561386,16.9412405 C14.6561386,17.3743375 14.3050441,17.725432 13.8719471,17.725432 L9.64854942,17.725432 C9.21545238,17.725432 8.86435787,17.3743375 8.86435787,16.9412405 L8.86625945,15.4788629 C8.93508755,14.4923268 9.12828513,13.6492828 9.45380847,12.9500105 C9.76568944,12.2800439 10.1341684,11.7010056 10.5609289,11.2149728 C10.9712833,10.7476247 11.4071044,10.3404761 11.8684952,9.99443294 C12.2693861,9.69376481 12.6391162,9.39398365 12.9776959,9.09523685 C13.2707385,8.83666979 13.5036417,8.55718604 13.6794876,8.25573586 C13.8178262,8.01858392 13.8860775,7.69528861 13.8698662,7.24306803 C13.8698662,6.4775638 13.7018092,5.96965801 13.401916,5.67642916 C13.0900163,5.37146058 12.6360406,5.21166113 11.9948815,5.21166113 C11.5555618,5.21166113 11.19794,5.29241444 10.9119407,5.44641406 C10.6099945,5.60900046 10.3676648,5.82103894 10.1771768,6.08772211 C9.97472669,6.37115231 9.82192768,6.70978795 9.72010909,7.1085774 C9.61161782,7.53350156 9.556777,7.99507845 9.556777,8.49444512 C9.556777,8.92754216 9.20568248,9.27863667 8.77258545,9.27863667 L4.17377464,9.27863667 Z M8.02698952,7.71025357 C8.06151886,7.36858684 8.11927256,7.03862833 8.20047493,6.7205857 C8.34893302,6.13912485 8.58197142,5.62266136 8.90093101,5.17611795 C9.23185276,4.7128275 9.65691751,4.34089584 10.1683705,4.06549807 C10.6957704,3.78151351 11.3079561,3.64327803 11.9948815,3.64327803 C13.0222334,3.64327803 13.8717625,3.94231225 14.4984003,4.55502479 C15.1370447,5.17947706 15.4382493,6.08978446 15.437712,7.2140438 C15.4637509,7.91709247 15.3338694,8.5323206 15.0342238,9.04599866 C14.7720856,9.49537849 14.4314466,9.90414526 14.0153721,10.2712699 C13.6448345,10.5982147 13.2428898,10.9241159 12.8095251,11.2491394 C12.4366604,11.5287879 12.0799505,11.86203 11.739475,12.2497939 C11.4154054,12.6188731 11.126918,13.0722105 10.8756765,13.6119145 C10.6380773,14.1223127 10.4871496,14.7809062 10.432741,15.5334413 L10.432741,16.1570489 L13.0919294,16.1570489 L13.0946346,15.6487906 C13.1955875,14.8916432 13.4497262,14.2400057 13.8621566,13.7078374 C14.2258638,13.2385378 14.6429175,12.8214841 15.1122171,12.4577769 C15.5411631,12.1253437 15.9961837,11.7934463 16.4773028,11.4620088 C16.8879515,11.1791174 17.2634581,10.8356662 17.6046498,10.4299248 C17.9350495,10.0370171 18.2165163,9.55579955 18.4473658,8.983293 C18.6665054,8.43982665 18.7815213,7.71292616 18.7815213,6.80508605 C18.7815213,6.29932718 18.6694734,5.73908752 18.4399464,5.12395528 C18.2200087,4.53452214 17.8498281,3.97702131 17.3218466,3.4490398 C16.7950738,2.922267 16.0847616,2.47193835 15.1852826,2.10267855 C14.2979908,1.7384219 13.1613706,1.55138313 11.7758905,1.55138313 C10.728851,1.55138313 9.7933861,1.7253138 8.96412429,2.07006309 C8.13507887,2.41472242 7.43349743,2.89013616 6.85272279,3.49856674 C6.26765169,4.11149836 5.81173309,4.83724634 5.48340673,5.68151412 C5.23989999,6.3076743 5.08033047,6.98339896 5.00552028,7.71025357 L8.02698952,7.71025357 Z"/>
  </defs>
  <g fill="none" fill-rule="evenodd">
    <mask id="helps_upport-b" fill="#fff">
      <use xlink:href="#helps_upport-a"/>
    </mask>
    <use fill="#FFF" fill-rule="nonzero" xlink:href="#helps_upport-a"/>
    <g mask="url(#helps_upport-b)">
      <rect width="24.031" height="24.041" fill="#FFF" transform="translate(-.031 -.041)"/>
    </g>
  </g>
</svg>
