<svg xmlns="http://www.w3.org/2000/svg" xmlns:xlink="http://www.w3.org/1999/xlink" width="24" height="24" viewBox="0 0 24 24">
  <defs>
    <path id="search-a" d="M8.43796447,15.2938106 C12.2243437,15.2938106 15.2938106,12.2243437 15.2938106,8.43796447 C15.2938106,4.6515852 12.2243437,1.58211834 8.43796447,1.58211834 C4.6515852,1.58211834 1.58211834,4.6515852 1.58211834,8.43796447 C1.58211834,12.2243437 4.6515852,15.2938106 8.43796447,15.2938106 Z M8.43796447,0 C13.0981236,0 16.8759289,3.77780537 16.8759289,8.43796447 C16.8759289,10.4832565 16.148235,12.3585865 14.9376295,13.8191722 L23.7654196,22.6496704 C24.0742961,22.9586495 24.074213,23.4595204 23.7652339,23.768397 C23.4562548,24.0772735 22.9553838,24.0771904 22.6465073,23.7682113 L13.8191722,14.9376295 C12.3585865,16.148235 10.4832565,16.8759289 8.43796447,16.8759289 C3.77780537,16.8759289 0,13.0981236 0,8.43796447 C0,3.77780537 3.77780537,0 8.43796447,0 Z"/>
  </defs>
  <g fill="none" fill-rule="evenodd">
    <mask id="search-b" fill="#fff">
      <use xlink:href="#search-a"/>
    </mask>
    <use fill="#979797" fill-rule="nonzero" xlink:href="#search-a"/>
    <g fill="#9B9B9B" mask="url(#search-b)">
      <rect width="24" height="24"/>
    </g>
  </g>
</svg>
