<svg xmlns="http://www.w3.org/2000/svg" xmlns:xlink="http://www.w3.org/1999/xlink" width="24" height="24" viewBox="0 0 24 24">
  <defs>
    <path id="star_empty-a" d="M12.2212829,4.68140769 C12.3198892,4.73007281 12.3997029,4.80988657 12.448368,4.90849288 L14.351141,8.76393202 L18.6058707,9.38218044 C18.8791431,9.42188925 19.0684839,9.67561067 19.0287751,9.9488831 C19.0129628,10.0577016 18.9617192,10.1582728 18.8829774,10.2350271 L15.8042261,13.236068 L16.5310207,17.4736057 C16.5777012,17.7457739 16.3949073,18.0042518 16.122739,18.0509324 C16.0143602,18.0695208 15.9028762,18.0518634 15.8055459,18.0006939 L12,16 L8.19445406,18.0006939 C7.95003177,18.1291943 7.64771819,18.035221 7.51921778,17.7907988 C7.46804825,17.6934685 7.45039091,17.5819845 7.46897933,17.4736057 L8.19577393,13.236068 L5.1170226,10.2350271 C4.91928081,10.0422765 4.91523465,9.72571989 5.10798526,9.5279781 C5.18473956,9.44923628 5.28531077,9.39799269 5.39412928,9.38218044 L9.64885899,8.76393202 L11.551632,4.90849288 C11.6738431,4.66086605 11.973656,4.55919655 12.2212829,4.68140769 Z M13.6870755,9.67793979 L12,6.26 L10.3129245,9.67793979 L6.54,10.225 L9.27025451,12.8869481 L8.625,16.644 L12,14.8702243 L15.374,16.644 L14.7297455,12.8869481 L17.459,10.225 L13.6870755,9.67793979 Z"/>
  </defs>
  <g fill="none" fill-rule="evenodd">
    <mask id="star_empty-b" fill="#fff">
      <use xlink:href="#star_empty-a"/>
    </mask>
    <use fill="#CCC" fill-rule="nonzero" xlink:href="#star_empty-a"/>
    <g fill="#DDA50E" mask="url(#star_empty-b)">
      <rect width="24" height="24"/>
    </g>
  </g>
</svg>
